<svg width="21" height="21" viewBox="0 0 21 21" fill="none" xmlns="http://www.w3.org/2000/svg">
<path d="M17.0631 10.9818C17.0662 10.8711 17.0662 10.7603 17.0631 10.6495L18.2109 9.21563C18.2711 9.14034 18.3127 9.05197 18.3325 8.95764C18.3523 8.86331 18.3496 8.76565 18.3247 8.67254C18.1362 7.9654 17.8548 7.28638 17.4878 6.65324C17.4397 6.57041 17.3729 6.49994 17.2928 6.44746C17.2127 6.39497 17.1214 6.36192 17.0262 6.35092L15.2016 6.14784C15.1257 6.06784 15.0487 5.99091 14.9708 5.91706L14.7554 4.08778C14.7443 3.99255 14.7111 3.90123 14.6585 3.8211C14.6059 3.74097 14.5353 3.67423 14.4523 3.62622C13.8192 3.25948 13.1402 2.97855 12.433 2.79081C12.3399 2.76594 12.2422 2.76328 12.1479 2.78305C12.0536 2.80283 11.9652 2.84448 11.8899 2.90466L10.4599 4.04624H10.1275L8.69366 2.90082C8.61837 2.84064 8.53 2.79898 8.43567 2.77921C8.34134 2.75943 8.24368 2.76209 8.15056 2.78697C7.44343 2.97545 6.76441 3.25689 6.13127 3.62392C6.04843 3.67201 5.97797 3.73878 5.92549 3.81891C5.873 3.89904 5.83995 3.99031 5.82895 4.08547L5.62587 5.91322C5.54587 5.98963 5.46894 6.06656 5.39509 6.14399L3.5658 6.354C3.47058 6.36508 3.37926 6.39825 3.29913 6.45087C3.21899 6.50349 3.15226 6.57411 3.10425 6.65709C2.73758 7.29031 2.45641 7.96931 2.26807 8.67638C2.2433 8.76956 2.24076 8.86725 2.26067 8.96158C2.28058 9.05592 2.32238 9.14426 2.38269 9.21948L3.52426 10.6495V10.9818L2.37884 12.4157C2.31866 12.491 2.27701 12.5794 2.25723 12.6737C2.23746 12.768 2.24012 12.8657 2.26499 12.9588C2.45348 13.666 2.73492 14.345 3.10194 14.9781C3.15004 15.061 3.21681 15.1314 3.29694 15.1839C3.37707 15.2364 3.46834 15.2694 3.5635 15.2804L5.38817 15.4835C5.46458 15.5635 5.54151 15.6404 5.61895 15.7143L5.83203 17.5436C5.84311 17.6388 5.87628 17.7301 5.9289 17.8103C5.98152 17.8904 6.05214 17.9571 6.13512 18.0051C6.76834 18.3718 7.44734 18.653 8.15441 18.8413C8.24758 18.8661 8.34528 18.8686 8.43961 18.8487C8.53395 18.8288 8.62228 18.787 8.6975 18.7267L10.1275 17.5851C10.2383 17.5882 10.3491 17.5882 10.4599 17.5851L11.8938 18.7329C11.969 18.793 12.0574 18.8347 12.1517 18.8545C12.2461 18.8742 12.3437 18.8716 12.4369 18.8467C13.1441 18.6585 13.8232 18.3771 14.4561 18.0098C14.539 17.9617 14.6094 17.8949 14.6619 17.8148C14.7144 17.7346 14.7475 17.6434 14.7585 17.5482L14.9615 15.7235C15.0415 15.6476 15.1185 15.5707 15.1923 15.4927L17.0216 15.2774C17.1168 15.2663 17.2082 15.2331 17.2883 15.1805C17.3684 15.1279 17.4352 15.0573 17.4832 14.9743C17.8498 14.341 18.131 13.662 18.3193 12.955C18.3441 12.8618 18.3466 12.7641 18.3267 12.6698C18.3068 12.5754 18.265 12.4871 18.2047 12.4119L17.0631 10.9818ZM10.2937 13.8927C9.68513 13.8927 9.09022 13.7122 8.58421 13.3741C8.07819 13.036 7.6838 12.5555 7.45091 11.9932C7.21802 11.431 7.15708 10.8123 7.27581 10.2154C7.39454 9.6185 7.6876 9.07023 8.11793 8.6399C8.54825 8.20957 9.09653 7.91651 9.69341 7.79778C10.2903 7.67906 10.909 7.73999 11.4712 7.97288C12.0335 8.20578 12.514 8.60017 12.8522 9.10618C13.1903 9.61219 13.3707 10.2071 13.3707 10.8157C13.3707 11.6318 13.0465 12.4144 12.4695 12.9915C11.8924 13.5685 11.1098 13.8927 10.2937 13.8927Z" fill="white"/>
</svg>
