<svg width="28" height="28" viewBox="0 0 28 28" fill="none" xmlns="http://www.w3.org/2000/svg">
	<path d="M7 9.33325C7 7.47674 7.7375 5.69626 9.05025 4.3835C10.363 3.07075 12.1435 2.33325 14 2.33325C15.8565 2.33325 17.637 3.07075 18.9497 4.3835C20.2625 5.69626 21 7.47674 21 9.33325V12.7364C21 13.5566 21.266 14.3546 21.7583 15.0114L24.15 18.1999C24.345 18.4599 24.4637 18.7691 24.4929 19.0928C24.5221 19.4164 24.4606 19.7419 24.3152 20.0325C24.1699 20.3232 23.9465 20.5677 23.67 20.7386C23.3936 20.9094 23.075 20.9999 22.75 20.9999H5.25C4.925 20.9999 4.60643 20.9094 4.32997 20.7386C4.05351 20.5677 3.8301 20.3232 3.68475 20.0325C3.53941 19.7419 3.47789 19.4164 3.50707 19.0928C3.53626 18.7691 3.655 18.4599 3.85 18.1999L6.24167 15.0114C6.73391 14.3551 7 13.5568 7 12.7364V9.33325ZM14 25.0832C13.1206 25.0831 12.2646 24.7992 11.5595 24.2737C10.8543 23.7482 10.3375 23.0093 10.0858 22.1666H17.9142C17.6625 23.0093 17.1457 23.7482 16.4405 24.2737C15.7354 24.7992 14.8794 25.0831 14 25.0832Z" fill="white" />
</svg>
